<svg xmlns="http://www.w3.org/2000/svg" xmlns:xlink="http://www.w3.org/1999/xlink" width="257" height="210" viewBox="0 0 257 210"><defs><style>.a{fill:#fff;stroke:#707070;}.b{clip-path:url(#a);}.c{clip-path:url(#b);}.d{fill:#5e216f;opacity:0.68;}</style><clipPath id="a"><rect class="a" width="257" height="210" transform="translate(0 558)"/></clipPath><clipPath id="b"><rect class="a" width="520" height="262" transform="translate(0.345 -0.256)"/></clipPath></defs><g class="b" transform="translate(0 -558)"><g class="c" transform="translate(-100.687 493.138) rotate(9)"><g transform="translate(-184.475 -272.674)"><path class="d" d="M.638,10.125S-23.054,138.2,218.351,191.353,384.2,383.719,384.2,383.719L544.281,390.3,532.115,87.577V35.436L471.924,7.593,334.892,0Z" transform="matrix(-0.978, 0.208, -0.208, -0.978, 631.447, 580.535)"/><path class="d" d="M.818,576.734S-29.573,382.442,280.086,301.806,492.823,9.983,492.823,9.983L698.166,0,682.56,459.237v79.1l-77.209,42.238L429.576,592.094Z" transform="matrix(0.53, 0.848, -0.848, 0.53, 502.124, 0)"/></g></g></g></svg>